<?xml version="1.0" encoding="UTF-8"?>
<svg xmlns="http://www.w3.org/2000/svg" width="512" height="448.156">
<path id="green" style="fill:#00a13b" d="M 504.16778,138.36981 C 538.73737,259.10739 455.64108,397.0213 318.56016,436.31558 181.54432,475.55343 42.454665,414.47094 7.8286754,293.78109 -26.732235,173.09559 56.368405,53.399246 193.41027,14.135346 330.46949,-25.128554 469.61121,17.758036 504.16778,138.36981"/>
<path id="white" style="fill:#ffffff" d="M 296.3099,384.37399 C 261.97893,391.1378 228.21198,391.038 197.03513,385.24604 186.99572,355.73521 176.54849,289.22519 246.94151,218.41568 L 217.66061,219.69122 C 167.78027,268.78194 160.67806,336.49371 170.83028,379.03757 107.53079,359.55313 59.177625,314.15017 46.717305,250.81599 26.751285,149.47608 98.228935,54.891286 216.12477,31.662676 334.04662,8.516496 450.57581,44.782456 470.52015,146.15275 490.44713,247.43192 414.21874,361.16274 296.3099,384.37399 M 496.27814,141.66668 C 462.99274,25.545316 329.07899,-15.714324 197.22603,22.052786 65.325355,59.832896 -14.651525,175.08222 18.616495,291.17754 51.836795,407.37698 185.75056,466.09498 317.65992,428.30616 449.56058,390.52607 529.4941,257.76201 496.27814,141.66668"/>
<path id="sepal1" style="fill:#cce3c4" d="M 258.26498,209.99262 C 233.48738,238.76605 213.81628,275.73505 213.81628,275.73505 213.81628,275.73505 206.91795,240.65333 238.73272,199.0247"/>
<path id="sepal2" style="fill:#57b25b" d="M 244.83666,229.1778 C 241.28337,235.29085 217.38649,267.93863 217.38649,267.93863 217.38649,267.93863 220.16752,247.50828 233.81668,227.47708"/>
<path id="sepal3" style="fill:#8dc585" d="M 236.69619,209.46244 C 206.03114,239.44634 197.54489,276.18973 197.54489,276.18973 197.54489,276.18973 212.69086,253.76364 262.84912,224.34376"/>
<path id="sepal4" style="fill:#cce3c4" d="M 223.90607,226.96209 C 216.59123,235.98633 204.72957,262.90285 204.72957,262.90285 204.72957,262.90285 222.20101,242.71546 233.93252,231.86902"/>
<path id="sepal5" style="fill:#57b25b" d="M 238.99136,204.244 C 208.30027,234.18884 175.83839,241.35915 175.83839,241.35915 175.83839,241.35915 188.24115,243.6184 208.02816,240.34866 195.16806,249.97185 185.33962,253.63766 185.33962,253.63766 185.33962,253.63766 203.72405,257.13311 222.91236,237.07566 235.41355,233.6711 249.74889,228.10983 265.1372,219.09006 Z"/>
<path id="sepal6" style="fill:#8dc585" d="M 229.56705,223.72204 C 199.16665,239.14567 186.12489,239.08927 186.12489,239.08927 186.12489,239.08927 206.18647,228.46844 221.39751,216.19027"/>
<path id="yellow" style="fill:#fde500" d="M 387.50203,271.95528 C 386.57359,263.82913 374.69456,263.0265 370.22148,256.70085 365.78312,250.35786 395.30714,261.92884 394.51751,254.28861 393.73224,246.63536 377.99187,244.50512 370.62933,239.51576 363.27544,234.50904 381.48008,240.57003 383.87497,232.59573 386.25252,224.59974 373.12834,226.07485 368.23007,222.04865 363.30147,217.96605 377.80965,221.51935 386.49982,216.6775 395.22469,211.82263 357.89995,210.26508 351.50486,208.80298 345.12283,207.30183 356.69814,204.89392 366.12588,197.94787 375.5536,190.97144 367.30163,191.3836 358.91517,193.46178 350.52436,195.46186 351.60033,190.58097 347.28344,181.76064 342.89714,172.94032 339.79507,172.48477 332.98349,169.46946 326.25436,166.44981 326.41055,166.11574 323.63387,161.22617 320.9266,156.28453 315.68994,149.06514 311.34703,147.03903 306.98676,144.96519 303.28595,139.48123 300.88238,134.7435 298.4658,130.01012 296.20106,128.7259 287.58465,123.00766 287.58465,123.00766 282.45212,123.03803 281.33276,119.03352 280.18304,115.00299 275.14162,117.22 274.07433,119.17236 272.95931,121.09869 262.91985,117.11154 261.32759,109.41057 259.74835,101.73129 253.60059,102.07837 249.43556,102.66842 247.62203,102.94609 245.32693,106.09156 242.97976,109.80104 239.93842,104.15221 236.86237,98.71164 236.74089,104.98522 236.63676,109.49734 238.39822,112.70788 239.75186,115.02034 237.96003,117.98359 236.26364,120.62144 234.84493,121.95338 233.72124,120.21362 232.47607,118.24391 231.31333,116.58657 228.52363,112.68185 234.06833,103.93094 230.71895,100.51215 227.29581,97.04996 212.27566,94.95877 217.96787,98.28212 221.02223,100.02623 221.96804,108.10899 222.3802,116.6126 219.85515,113.57993 216.74006,109.71861 212.45788,104.29105 192.7434,79.149 165.88328,96.63346 176.30888,93.18863 186.73447,89.78719 210.61399,112.15255 214.03712,122.59115 217.48195,132.99072 207.87635,119.93595 196.71753,111.04621 187.91023,104.09581 168.70769,101.35383 166.85512,103.54481 L 166.35185,102.98947 C 158.24305,99.40581 148.10814,87.09727 141.18811,90.47268 134.29411,93.84809 159.68345,112.81635 151.97381,112.37381 144.20776,111.90525 137.33546,102.22588 129.89046,105.75748 122.44113,109.27173 111.03501,105.53622 110.49703,107.30636 109.94169,109.15459 114.8573,111.04621 120.19808,113.59295 125.59961,116.08763 131.84282,119.0639 122.84461,117.08551 113.82906,115.08542 106.90903,119.24178 106.42745,122.42629 105.99793,125.5544 128.54984,115.80996 146.37705,130.14895 164.19557,144.57906 120.86622,120.65181 107.3559,128.36146 93.867271,136.16222 114.01128,129.57192 133.27889,140.53116 152.52915,151.51644 100.77862,137.37702 96.61793,151.08258 92.457235,164.87057 92.3184,153.16076 101.71575,157.4733 111.17385,161.82923 91.580844,161.84225 98.726477,164.88358 105.87211,167.99868 143.45285,156.05025 162.49485,163.55598 181.52818,171.05738 132.93614,165.36517 130.12475,170.53675 127.28732,175.75172 118.77503,182.00794 130.5022,182.96677 142.15561,183.87787 141.61329,181.23134 160.19541,182.5763 178.85996,183.97332 158.93722,186.66323 159.1715,190.16446 159.3624,193.63532 166.76835,191.22741 180.23963,188.12533 182.23103,187.67412 183.65842,187.53529 184.81248,187.50492 176.47374,193.97373 163.37992,199.86985 160.17805,203.96981 157.90898,206.79422 181.08565,207.13697 181.1247,201.4491 181.1247,198.84595 183.67578,198.51188 186.7605,199.11928 186.58262,200.14753 186.66505,201.17143 187.15531,202.12592 190.83443,209.21948 174.5908,214.07435 174.48233,220.33492 174.44329,226.59114 200.80013,211.54063 209.45559,210.36921 218.08935,209.21948 175.03767,228.88625 189.39402,229.58042 198.91719,230.04899 213.27353,223.51943 223.96379,219.73619 226.21551,223.70599 227.11793,228.678 220.72287,232.4569 211.22573,238.06667 218.71411,234.97761 220.30637,246.26224 222.75766,263.41263 230.24604,237.07748 236.05973,240.30972 232.98802,249.65501 227.32618,264.74457 230.38488,265.26954 232.79279,265.72509 236.31137,255.56415 238.81473,244.96067 240.64561,252.25381 238.69325,265.26954 245.15772,274.65388 253.30991,286.43311 253.08864,251.58567 256.66363,259.50791 260.21692,267.48655 261.32759,297.80451 266.61632,294.39873 269.44073,292.61558 268.74656,275.10943 268.69016,259.08273 273.41052,272.50628 278.32613,286.80189 282.26122,290.53306 291.0208,298.84143 277.53651,263.82913 281.48461,246.86964 281.53667,246.67874 281.58006,246.45314 281.64948,246.26224 282.7428,251.8807 283.24173,257.90264 283.32417,261.87677 283.48036,271.27847 289.36347,260.17171 293.78881,273.28289 298.29225,286.43311 305.06477,322.51704 308.10177,320.83801 311.14745,319.2067 295.22922,271.55613 306.21015,286.66305 317.1477,301.78733 316.20189,317.77931 323.15229,327.22439 330.1157,336.67381 330.97474,326.11372 333.89895,321.00721 336.36325,316.69901 305.3945,257.33429 305.16022,245.71992 314.37535,257.92867 319.30397,276.4674 326.26737,284.70202 331.13093,290.46364 326.35415,278.51521 321.9505,263.0265 335.3133,287.57415 348.83664,326.25255 353.62643,329.5889 360.02151,334.08801 349.00152,307.06303 357.62662,312.81165 366.27771,318.49952 356.97583,334.86896 366.46862,324.13099 375.95276,313.41904 340.33737,272.88374 359.80024,283.44383 379.26308,294.06466 380.69048,318.57327 380.16116,303.00646 379.58414,287.44833 340.70617,269.22632 362.29057,276.78845 383.91402,284.33324 383.27625,302.65938 385.68416,300.64194 388.10945,298.60715 388.05302,290.53306 381.6146,283.92107 375.18047,277.30041 380.16116,279.6953 385.13317,282.93188 390.09216,286.12941 395.14226,290.68491 396.37443,289.28789 397.59355,287.84748 388.41746,280.12482 387.50203,271.95528"/>
</svg>