<svg xmlns="http://www.w3.org/2000/svg" width="512" height="512">
<path d="m 508.4639,281.88773 c 0,-0.34891 -0.0713,-0.7077 -0.22383,-1.08404 -0.22603,-0.55409 -1.45929,-2.07921 -2.45226,-3.30041 -1.34847,-1.67105 -2.18674,-2.72327 -2.30743,-3.13582 -0.27979,-0.42572 -0.37964,-0.93263 -0.37964,-1.42308 0,-0.67259 0.18872,-1.31775 0.29954,-1.65788 0.21395,-0.61444 1.12244,-1.63155 2.59819,-3.24335 0.95896,-1.04674 2.26683,-2.48189 2.45665,-2.9493 0.13386,-0.33245 0.18543,-0.77024 0.18543,-1.22119 0,-0.83717 -0.18543,-1.72811 -0.37525,-2.10225 -0.57713,-1.13891 -1.7292,-1.8883 -2.9482,-2.68048 -1.53499,-0.99956 -3.19946,-2.24709 -3.84462,-3.73161 -0.38292,-0.61773 -0.4323,-1.31556 -0.4323,-1.87842 0,-1.94536 3.87315,-4.07394 6.4099,-6.03794 2.53235,-1.9662 3.8117,-4.01469 4.27363,-4.87051 0.22163,-0.50582 0.31819,-1.42747 0.26003,-1.91134 -0.0362,-0.30393 -0.0219,-0.58701 -0.0779,-0.79438 -0.59249,-2.15711 -2.19771,-3.40903 -3.6142,-4.51611 l -0.35331,-0.2765 -4.20779,-3.20275 -1.01163,-0.69344 c -1.78186,-1.19596 -3.80512,-2.5554 -4.91001,-5.23807 -0.38731,-0.9436 -0.54531,-1.83454 -0.54531,-2.6728 0,-2.39521 1.2991,-4.37348 2.3206,-5.92493 l 1.12683,-1.9256 c 0.18323,-0.4334 0.27759,-0.88655 0.27759,-1.3386 0,-0.48826 -0.11301,-0.97432 -0.31819,-1.43624 -0.35878,-0.78451 -0.99297,-1.41211 -1.67543,-1.64801 -0.54312,-0.20628 -1.9684,-0.44547 -3.4233,-0.25455 -1.18169,0.15799 -4.76188,0.57822 -8.54725,0.49593 -5.96004,-0.12288 -16.5108,-1.47574 -23.17086,-3.73928 l -0.36537,-0.12289 c -2.55101,-0.80864 -4.61376,-1.67544 -6.98044,-2.89334 -0.51789,-0.26662 -1.94645,-1.21681 -2.14505,-1.26069 -0.22383,0.002 -2.27012,1.15865 -2.27012,1.15865 l -1.88281,0.78779 -4.18915,1.79284 c -2.79788,1.27057 -5.47178,2.12201 -10.13711,3.60653 0,0 -6.76978,2.1626 -7.99316,2.03752 l -0.16568,-0.0779 c -0.38622,-0.28527 -1.4165,-4.14854 -1.45929,-4.89684 -0.0132,-0.26333 0.2337,-0.55519 0.64187,-0.75378 l 2.40398,-0.71648 c 3.25542,-0.87447 8.12374,-2.20868 11.47132,-3.52753 15.86674,-6.25628 26.39007,-12.15378 37.46968,-24.52152 3.27627,-3.64931 7.40945,-10.02958 8.00304,-11.28808 0.60127,-1.26069 0.72855,-1.99253 0.72855,-1.99253 0.48606,-2.06934 -0.45534,-3.79854 -0.9809,-4.55671 -0.71209,-1.04784 -1.6151,-1.34847 -2.68268,-1.79833 0,0 -1.61509,-0.48606 -2.39301,-1.42417 -0.64736,-0.78451 -1.00175,-2.77814 -1.26289,-4.2879 -0.48387,-2.71998 0.49704,-11.75 1.05551,-13.92248 0.61554,-2.35022 1.29032,-5.68135 0.10205,-7.43469 -1.4966,-2.21526 -5.77132,-3.31796 -8.31246,-3.55386 l -1.2585,-0.12837 c -1.54926,-0.20627 -4.93415,-0.96664 -6.1718,-1.75005 -0.65503,-0.40926 -1.82685,-1.28263 -2.37875,-2.53126 -0.95457,-2.16918 -0.14593,-4.60498 0.96994,-7.97012 l 0.22822,-0.67917 c 0.43888,-1.34738 0.9403,-2.8725 0.1953,-4.42615 -0.35111,-0.73622 -1.84331,-0.96664 -3.29272,-1.18827 l -2.7134,-0.57823 c -2.81763,-0.95787 -6.18387,-2.97783 -7.16697,-5.7779 -0.75159,-2.14285 -0.81742,-3.98507 -0.22383,-5.97211 l 0.40048,-1.30458 c 1.50647,-4.92647 4.64887,-15.17769 1.76212,-16.92774 -0.67698,-0.42133 -1.8082,-1.12464 -4.00811,-1.22668 l -4.25936,-0.01 c 0,0 -0.92714,0.0604 -1.14878,0.0625 -6.0149,0.0154 -12.83076,0.0351 -15.32472,-3.59995 -1.66446,-2.42373 -2.10664,-5.1865 -2.28,-8.85447 l 0.10973,-2.86591 c 0.18762,-2.48189 0.3928,-5.29403 -0.79548,-7.03969 -0.95457,-1.41321 -4.91659,-1.2212 -8.73817,-1.03687 -3.63944,0.17885 -7.09126,0.36099 -9.52816,-0.67697 -5.19638,-2.21527 -5.82509,-6.82684 -6.32541,-10.5354 -0.29405,-2.13298 -0.54422,-3.97739 -1.58108,-4.73885 -0.91068,-0.66271 -2.4775,-0.1558 -4.28789,0.42901 -2.89993,0.94031 -6.50645,2.10884 -9.45355,-1.14439 -1.99692,-2.21087 -2.95808,-5.72633 -3.96971,-9.44477 -1.30348,-4.81236 -2.66073,-9.7882 -6.37807,-10.97429 -2.12749,-0.68246 -4.48868,0.45425 -5.80972,1.08953 -2.71559,1.30897 -4.64339,2.3996 -7.10223,4.01908 l -1.68532,1.23326 -2.29097,1.63375 -0.80206,0.54531 c -1.52293,1.08624 -3.82377,2.71998 -6.61178,1.6107 -2.73754,-1.09392 -3.4189,-4.41297 -3.97958,-7.08358 l -0.36537,-1.64581 c -0.31599,-1.2201 -0.84156,-1.69958 -1.54816,-2.2427 -1.42966,-1.1005 -5.42021,0.09 -8.62187,1.04893 l -1.09062,0.32478 c -1.57998,0.46083 -4.73336,0.91178 -6.53937,-0.31929 -1.53938,-1.04564 -2.18344,-2.61794 -2.8692,-4.2835 l -0.48496,-1.14659 C 322.93027,6.9193494 318.5546,0.04423936 315.36721,0.87153936 314.23599,1.1677794 311.86382,3.0505894 310.29262,4.9004894 l -1.84441,2.38533 c -2.13736,2.8626196 -4.80578,6.4197706 -6.80489,7.2865606 -1.28264,0.55519 -2.47311,0.80535 -4.11563,0.22164 -1.09172,-0.39061 -1.56352,-1.35286 -2.02106,-2.28439 0,0 -0.4718,-0.89642 -0.47399,-0.89642 l -1.42857,-2.8022706 c -0.52008,-1.12464 -0.96335,-2.09677 -1.53938,-2.54114 -1.91354,-1.46587 -3.75026,-0.4696 -4.26815,-0.12837 -0.8613,0.57165 -1.30897,2.00789 -1.8861,3.83036 l -0.47619,1.5009806 -0.9831,4.43821 c -1.10818,3.64163 -2.25586,8.62516 -3.75355,11.83449 -3.64163,7.8231 -6.05988,12.75396 -11.97493,20.66593 -1.83563,2.46982 -6.52949,6.82354 -7.16807,7.48077 0,0 -1.40552,1.60083 -1.66666,1.89159 0.0132,0.12069 0.0274,0.26882 0.0274,0.26882 0,0 0.32587,3.65041 0.33465,3.76013 0.0362,0.7878 0.09,1.82027 0.09,3.13692 0,1.52402 -0.0724,3.42439 -0.32807,5.75157 -0.47289,4.39542 -1.55803,11.321 -1.84001,11.75769 l -0.14154,0.19859 -0.0801,0.0702 c -0.21067,0.17994 -0.37964,0.40706 -2.83629,-0.0384 -2.25366,-0.40926 -2.3974,-0.66929 -2.53455,-0.92165 l -0.16239,-0.19311 0.24249,-1.67324 c 0.34891,-2.03862 1.08733,-6.28811 1.27166,-10.44104 0.37196,-8.31026 -0.58261,-16.32867 -3.29162,-27.66942 -2.42264,-10.15467 -6.90254,-20.56608 -14.09914,-31.24412 -1.45929,-2.1669806 -3.00745,-4.0366306 -4.5995,-5.5518706 l -1.72042,-1.21242 c -0.74062,-0.38073 -2.80117,-0.7483 -3.96092,-0.1953 -1.38139,0.66161 -2.56857,2.73644 -3.43646,4.25168 l -0.76805,1.28922 -0.20518,0.31271 c 0,0 -2.67609,3.7524506 -2.72107,3.8018306 -0.44767,0.52556 -1.38359,1.62057 -3.23567,1.99253 -5.87446,1.17291 -9.27252,-2.50493 -12.76603,-5.3269506 l -2.48957,-2.75619 -1.00833,-0.80206 c -1.66556,-1.36493 -3.74039,-3.0667 -6.8784,-2.75619 -1.70836,0.16787 -4.09808,4.09698 -6.20582,7.5608706 -2.05507,3.37501 -4.17817,6.86523 -6.47024,8.74695 -3.76123,3.08754 -12.54439,1.79174 -16.60735,0.60127 l -1.19705,-0.41255 c -1.48892,-0.54532 -3.18081,-1.16085 -4.77835,-0.53325 -2.54991,0.99846 -2.91419,2.79679 -3.52423,5.77242 l -0.34014,1.62058 c -0.7461,3.30479 -2.48957,5.45203 -3.41561,6.15973 -0.93811,0.71538 -3.03049,1.24204 -4.19902,1.22448 -4.23522,-0.0625 -7.1165,-0.4729 -9.8266,-1.88391 l -1.89378,-0.9425 -5.09325,-2.25915 c -2.06714,-0.89642 -5.96772,-2.09677 -7.64315,-1.4955 -5.41583,1.94865 -6.18607,8.96639 -6.93107,15.74934 l -0.60347,4.83101 c -0.34672,2.2021 -0.89203,3.74806 -1.77418,5.01315 -2.94601,4.23961 -9.29666,1.91572 -13.237829,0.47728 -0.71319,-0.26113 -3.13034,-1.03905 -4.36141,-0.0867 -1.01053,0.70112 -1.23107,2.58393 -1.44283,4.40749 l -0.59798,3.24335 c -0.36208,1.0599 -1.47903,3.13692 -2.40069,3.96641 l -1.50756,0.81632 c -1.64362,0.3149 -8.375,1.11257 -12.47746,0.63309 l -5.42241,-0.53653 c -7.4687,-0.5135 -8.83911,3.94995 -9.2001,7.89661 -0.0362,0.43779 -0.0549,0.84595 -0.0549,1.24533 0,1.2212 0.16678,2.30085 0.36757,3.58568 l 0.88545,4.0893 c 0.79986,3.33332 1.5712,7.80554 1.5712,11.53934 0,2.54224 -0.45205,4.93086 -1.71933,6.82793 -1.82795,2.72328 -5.12396,3.1468 -8.83801,3.62628 -1.23656,0.16019 -2.15273,0.29954 -2.69914,0.67259 -1.51963,1.03686 -1.78406,3.66468 -2.06933,6.44281 -0.32478,3.25322 -0.66491,6.61617 -3.09084,8.32891 -2.42483,1.71274 -5.92932,2.0836 -9.3164,2.44678 -2.03313,0.21395 -4.13319,0.43888 -5.98089,0.9436 -1.9651,0.53982 -3.62627,1.65239 -3.90496,2.18125 -0.26114,0.48935 -0.50362,1.39565 -0.50362,2.35351 0,0.45534 0.0549,0.91617 0.18652,1.35286 l 0.79768,2.09896 0.17665,0.4312 2.2372,4.4415 c 0.92934,1.65789 3.01075,3.87644 3.80074,6.15535 l 0.1558,0.44107 c 0.38073,1.04016 0.94579,2.57954 0.94579,4.24181 0,0.65723 -0.0878,0.92605 -0.31051,1.59535 -1.23106,3.69649 -5.69012,6.06317 -9.56327,6.76868 -6.06098,1.1005 -6.19155,2.70462 -6.28591,3.84462 -0.004,0.0845 -0.008,0.16238 -0.008,0.24029 0,1.17511 0.81194,1.65568 2.53126,2.55978 l 0.59579,0.3149 3.4957,2.09128 2.56528,1.67105 5.14371,3.47376 c 6.53061,4.82354 11.59752,10.09233 13.08534,11.92248 l 0.76146,0.93043 c 1.64362,1.99802 4.1288,5.01754 5.31598,7.06164 2.49285,4.30215 5.147,7.94598 5.74059,9.05416 0.18872,0.22493 0.35221,0.33136 0.35221,0.33136 0,0 8.66356,2.28219 12.40833,3.69759 3.58348,1.35725 11.14106,4.85076 11.73794,5.19968 l 0.33684,0.19311 c 0,0 0.15581,0.29295 0.14045,0.37744 -0.18324,0.95018 -1.56353,4.69385 -2.02874,4.93414 l -0.26662,0.0143 -0.99627,-0.39171 c 0,0 -6.32212,-3.23128 -10.09432,-4.44369 -5.86897,-1.8861 -10.63964,-3.30589 -18.82152,-4.0114 l -2.1615,-0.20956 c -9.81783,-0.57933 -17.36992,-1.63594 -30.59567,1.73688 -4.9155,1.25191 -12.4796604,4.09259 -13.9027304,8.05461 -1.11257,3.09303 1.13012,4.72897 3.59774,5.98747 l 1.43735,0.68136 c 2.9339304,1.35067 7.3721404,3.79964 8.1303104,6.87621 0.84485,3.41122 -1.04673,6.24202 -2.07153,7.78141 -2.9076,4.36795 -6.5360704,8.4792 -10.0438504,10.98303 l -2.46981,1.79613 c -0.72965,0.54531 -2.18892999,1.99692 -2.28109999,2.87359 -0.26443,2.50602 1.96509999,3.79853 4.53805999,5.29293 l 2.1615,1.31226 c 0.9414,0.62541 3.5790904,3.63725 4.0300404,4.6017 2.52578,5.36974 -0.37853,10.67913 -1.3265204,11.9892 l -0.60895,0.7856 c -1.19267,1.49001 -2.99099,3.736 -2.42812,6.02697 0.60236,2.44239 2.59051,4.30216 5.4564104,5.10422 l 1.47794,0.34123 2.7935,0.87228 c 1.33091,0.72635 2.44568,2.06275 3.05682,3.6548 0.60566,1.58108 0.44876,3.83036 0.0198,5.36206 -0.56067,2.02545 -3.38708,5.4268 -5.88104,8.42986 l -2.69584,3.39476 c -1.5349904,2.27232 -6.5119304,9.69384 -5.2073504,12.63765 0.47948,1.08404 1.34956,2.46543 3.83255,3.57581 4.2472904,1.89817 7.3139904,3.26968 9.9363204,4.1639 l 1.86416,0.57494 c 3.02061,0.89861 7.156,2.1242 8.65917,4.29667 3.17752,4.58743 0.78121,8.14239 -1.71823,11.11253 -1.1005,1.31117 -2.23611,2.97783 -1.2168,4.28351 0.9019,1.31994 2.69035,1.77308 4.58304,2.25366 2.61355,0.66491 5.57601,1.4165 6.43842,4.74104 1.00504,3.87534 -0.26114,6.4077 -1.18718,8.2576 l -0.56177,1.20473 -1.65898,3.11827 -1.3353,3.33332 c -0.33026,0.87667 -0.53325,4.68179 0.64186,6.42196 1.97169,2.93174 7.156,4.26156 16.01157,4.3636 l 2.90431,-0.0505 c 3.58129,-0.10533 7.27999,-0.21176 9.14195,0.96993 0,0 1.13671,0.7088 1.47136,1.59096 0.49374,1.31555 -0.20847,4.20779 -0.45644,5.14591 -0.24468,0.93153 -0.45754,2.48627 -0.3171,3.59006 0.14045,1.10599 0.68137,1.44503 1.12684,1.75115 0.7856,0.53763 1.79942,0.61773 2.09237,0.6298 l 1.14878,-0.0801 c 2.14505,-0.19091 5.2293,-0.70002 6.20362,-0.32477 3.26749,1.26947 1.34847,5.54639 0.35111,7.93172 l -1.26508,2.92077 c -1.28264,2.92296 -2.49396,5.68354 -3.53631,9.50951 -0.34891,1.27057 -0.7055,3.82158 -0.45644,4.77395 0.25675,0.98749 0.982,1.71823 1.54707,2.15712 0.56177,0.44217 2.99428,0.92823 4.71251,0.41474 l 0.95567,-0.3544 c 1.81259,-0.70879 4.83869,-1.89488 6.98812,-0.59798 2.92626,1.76761 1.87952,5.75157 1.51086,9.44368 -0.17556,1.77748 -0.553,2.2394 -0.29844,3.52862 0.09,0.49046 0.29844,1.70836 0.97871,1.95413 3.30479,1.19925 8.12373,-4.84856 11.03792,-7.22073 7.146119,-5.80314 14.917649,-8.64162 20.117329,-10.80312 4.81455,-2.0035 8.40681,-2.73205 10.7318,-3.39037 l 5.94467,-1.09172 c 0,0 0.0647,-0.0132 0.12399,-0.0252 0.20737,-0.28527 3.66248,-4.71251 3.66248,-4.71251 3.13363,-4.08052 9.15292,-10.13712 11.64358,-11.93544 l 0.43779,-0.20957 0.29076,0.023 c 0.91397,0.10204 2.88237,3.11937 3.04036,3.56484 0,0 -0.0406,0.42132 0.008,0.22383 -0.16239,0.41474 -0.5508,0.80425 -1.91244,2.07262 0,0 -1.27386,1.31446 -1.27386,1.31665 -1.79284,1.8883 -4.8749,5.12726 -6.71931,7.7046 -3.80292,5.32695 -6.12132,8.65808 -8.33439,14.59617 -0.95787,2.57625 -1.772,4.64668 -3.32016,10.84152 -1.79942,7.1944 -2.01557,13.22466 -2.22404,16.61723 -0.16458,2.64647 -0.0428,8.12045 0.30393,12.52135 0.18323,2.31292 1.26288,6.22886 3.68662,6.95521 1.54158,0.46412 3.87095,0.0889 4.7564,-0.40597 3.07328,-1.70177 7.23609,-4.12551 8.34317,-4.62254 1.32653,-0.59469 2.7134,-1.97059 5.76803,-0.22164 1.39126,0.79877 2.77265,4.00701 2.91858,8.31904 0.17226,5.10641 -0.2765,12.19657 2.5543,14.26152 1.41869,1.03686 3.41342,1.60522 5.33902,0.63419 l 2.56417,-1.58437 c 3.00416,-2.00131 5.17554,-3.50778 10.34668,-2.55979 2.84836,0.52337 4.52818,2.97234 6.14986,5.73291 1.12025,1.90476 2.2789,3.87096 3.68991,4.7202 0.48936,0.29185 1.5723,0.17445 2.17906,-0.12289 0.39499,-0.19311 2.13517,-1.56572 3.18081,-2.54443 l 1.72042,-1.90695 c 1.44722,-1.73468 2.99209,-3.33771 5.27538,-3.9697 3.29931,-0.91946 4.95939,-0.98749 7.62889,1.04674 1.16085,0.88874 2.32499,2.32718 3.32016,4.07393 2.86371,5.02522 3.60104,9.0421 6.52181,11.64029 l 0.42462,0.38842 c 1.29909,1.19815 3.07438,2.84067 5.61332,2.1604 3.3026,-0.88216 5.56504,-3.35526 7.95805,-5.9765 2.56528,-2.80446 6.87402,-5.40485 10.95673,-6.29139 5.86568,-1.27496 10.43665,6.93216 10.48493,7.01555 1.26947,2.29097 5.68135,7.24377 7.41165,7.15161 2.58392,-0.13935 4.93963,-2.87579 7.43797,-5.77022 2.04849,-2.38095 4.17488,-4.84418 6.65019,-6.07525 4.22645,-2.10445 6.85755,-0.009 10.29401,1.95413 1.89817,1.08404 4.20999,2.58612 5.17663,2.52797 1.0632,-0.0614 1.98485,-0.71757 2.57625,-1.53719 0.75707,-1.05003 1.56572,-2.28658 2.26354,-3.40464 1.28922,-2.0441 2.8692,-4.45576 5.92164,-5.27757 2.23721,-0.59908 3.2631,0.22163 4.47222,0.72306 l 1.91353,1.03796 c 2.20429,1.30348 10.8887,7.8209 14.08597,8.78535 2.15821,0.64625 3.4979,0.40377 4.481,-0.53215 2.08799,-1.99253 3.22031,-6.65786 4.50953,-9.8661 1.64252,-4.11783 2.42264,-7.34581 6.34845,-8.81388 2.98112,-1.11476 6.42087,1.64252 7.44237,2.31072 1.9651,1.27935 3.78317,2.6344 5.34121,2.49396 1.50208,-0.13496 2.54772,-1.22229 2.77484,-1.93767 0.24687,-0.76915 0.60566,-2.81983 0.65065,-4.01798 0.0823,-2.0836 0.1558,-4.25497 1.14109,-5.21394 2.14175,-2.08689 5.69452,-0.22602 9.01138,1.42089 3.51765,1.75005 6.95411,2.87139 8.96968,2.30853 0.52118,-0.14813 2.438,-0.9831 2.49835,-3.54289 0.11081,-4.60718 0.17994,-10.68133 1.82575,-11.70502 1.58108,-0.9842 2.63769,-0.0889 5.03509,0.13934 1.97498,0.18872 2.73205,0.0406 3.14899,-0.35111 0.40487,-0.38402 0.87448,-1.33201 0.88435,-1.97936 0.004,-0.1558 -0.0143,-0.54092 -0.0494,-0.71209 -0.37525,-1.74675 -0.33026,-2.54223 -2.0046,-5.11848 -1.85428,-2.85384 -4.95719,-7.51917 -6.23654,-9.99008 -1.93108,-3.72503 -3.33112,-8.43425 -4.37347,-13.45069 -0.73842,-3.56263 -1.13342,-10.2216 -1.03686,-11.93982 0.0944,-1.71714 0.16019,-2.83848 0.41255,-3.91155 0.28747,-1.20913 0.44546,-1.65679 0.57274,-2.01009 -0.0636,-0.0691 -0.13935,-0.14922 -0.13935,-0.14922 -3.00745,-3.00745 -5.34889,-5.75157 -6.58874,-7.08358 -1.00614,-1.07307 -4.50184,-5.5815 -5.03728,-6.31992 -0.61115,-0.85144 -1.51415,-2.10006 -1.71604,-2.53456 l -0.0121,-0.17445 c -0.14374,-0.15032 0.39828,-0.81742 1.73688,-2.02655 1.38358,-1.25191 2.3195,-1.81259 2.51261,-1.62167 l 0.1558,0.0636 c 0.22493,0.25455 1.21241,1.52182 2.16479,2.89224 0.29954,0.4334 0.87887,1.09062 2.44129,3.10181 1.46258,1.88061 3.46389,4.1255 5.92164,6.50206 2.78691,2.70352 11.04011,10.31266 23.81382,15.94464 7.77043,3.42987 14.06622,5.20296 20.33676,6.64798 4.11673,0.95019 7.41933,1.0226 8.74147,0.68576 1.74456,-0.44327 1.81698,-2.57844 1.7303,-6.04013 -0.0779,-3.15777 -0.158,-6.42307 2.14723,-8.03377 2.02106,-1.4143 8.06888,-2.96685 11.46145,-2.44897 1.59644,0.24358 5.53322,0.58481 6.13449,0.29954 0.86899,-0.48606 1.19486,-1.32653 1.19486,-2.44458 0,-1.11915 -0.32587,-2.52468 -0.74281,-4.14635 -0.35878,-1.40553 -0.69014,-2.68707 -0.69014,-3.71735 0,-0.55189 0.0933,-1.03247 0.33245,-1.42198 0.75159,-2.05288 2.93613,-2.51261 4.86503,-2.91858 l 0.83936,-0.18542 2.03862,-0.42682 c 3.10729,-0.61773 5.16565,-1.7665 6.53058,-3.70856 0.55409,-0.79438 0.74501,-2.0057 0.74501,-3.39257 0,-1.54817 -0.2359,-3.31796 -0.45315,-4.96597 -0.21944,-1.64362 -0.43559,-3.24884 -0.43559,-4.6401 0,-1.86415 0.28527,-3.45072 1.54158,-4.15074 3.74587,-2.07153 7.90429,-2.69474 11.57445,-3.24883 4.35373,-0.65284 8.11825,-1.21791 10.02301,-3.92253 0.61553,-0.87228 0.94579,-2.33815 0.94579,-3.83255 0,-0.9436 -0.13057,-1.90256 -0.40597,-2.72985 l -1.84111,-4.18146 -1.12903,-2.3601 c -1.01821,-2.33815 -2.10006,-4.48649 -2.84068,-7.03421 l -0.15361,-0.52556 c -0.39609,-1.3364 -0.88325,-2.97014 -0.88325,-4.53147 0,-0.99407 -0.1185,-1.95413 0.42682,-2.79569 2.17576,-3.37501 6.33309,-3.66797 9.36797,-3.87973 1.8049,-0.12508 3.50448,-0.24358 3.80182,-0.94141 0.2359,-0.55299 0.33685,-1.26727 0.33685,-2.09018 0,-2.23721 -0.72745,-5.24795 -1.34518,-7.80554 l -0.0801,-0.34123 c -0.14702,-0.62541 -0.21944,-1.31995 -0.21944,-2.02545 0,-1.94206 0.19969,-4.47442 0.86241,-5.41034 1.67873,-2.37546 6.20471,-4.73994 9.199,-6.30785 l 0.92165,-0.48058 1.25411,-0.6276 c 1.8872,-0.91178 3.51436,-1.69739 4.0498,-3.5385 0.0987,-0.33465 0.14373,-0.69454 0.14373,-1.07198 0,-2.61464 -2.15711,-6.07963 -3.64931,-8.47264 l -1.46587,-2.44897 c -0.52447,-0.82949 -1.26179,-1.99473 -1.26179,-3.42549 0,-0.35549 0.045,-0.72635 0.15361,-1.11257 0.79657,-2.9493 2.39959,-5.05703 4.15732,-7.10004 l 1.63484,-1.97278 1.75992,-1.94535 c 1.35067,-1.39016 2.56528,-2.62891 2.56528,-4.08052" style="fill:#ED1C24"/>
<path d="m 218.304,383.95284 -86.63,-229.403 74.096,0 51.628,165.098 50.978,-165.098 71.941,0 -85.178,229.403 z" style="fill:#ffffff"/>
</svg>