<?xml version="1.0" encoding="UTF-8" standalone="no"?>
<!-- Generator: Adobe Illustrator 13.0.0, SVG Export Plug-In . SVG Version: 6.00 Build 14948)  -->

<svg
   xmlns:dc="http://purl.org/dc/elements/1.1/"
   xmlns:cc="http://creativecommons.org/ns#"
   xmlns:rdf="http://www.w3.org/1999/02/22-rdf-syntax-ns#"
   xmlns:svg="http://www.w3.org/2000/svg"
   xmlns="http://www.w3.org/2000/svg"
   xmlns:sodipodi="http://sodipodi.sourceforge.net/DTD/sodipodi-0.dtd"
   xmlns:inkscape="http://www.inkscape.org/namespaces/inkscape"
   version="1.1"
   id="Lager_1"
   x="0px"
   y="0px"
   width="247.07805"
   height="254.29977"
   viewBox="0 0 247.07804 254.29978"
   enable-background="new 0 0 248.031 301.481"
   xml:space="preserve"
   inkscape:version="0.48.2 r9819"
   sodipodi:docname="Centerpartiet Teillogo.svg"><metadata
   id="metadata3101"><rdf:RDF><cc:Work
       rdf:about=""><dc:format>image/svg+xml</dc:format><dc:type
         rdf:resource="http://purl.org/dc/dcmitype/StillImage" /></cc:Work></rdf:RDF></metadata><defs
   id="defs3099" /><sodipodi:namedview
   pagecolor="#ffffff"
   bordercolor="#666666"
   borderopacity="1"
   objecttolerance="10"
   gridtolerance="10"
   guidetolerance="10"
   inkscape:pageopacity="0"
   inkscape:pageshadow="2"
   inkscape:window-width="640"
   inkscape:window-height="480"
   id="namedview3097"
   showgrid="false"
   fit-margin-top="0"
   fit-margin-left="0"
   fit-margin-right="0"
   fit-margin-bottom="0"
   inkscape:zoom="0.78280227"
   inkscape:cx="123.48755"
   inkscape:cy="103.5585"
   inkscape:window-x="1920"
   inkscape:window-y="0"
   inkscape:window-maximized="0"
   inkscape:current-layer="g3045" />
<g
   id="g3045"
   transform="translate(-0.52795335,7.8312949e-4)">
	<g
   id="g3047">
		<path
   d="m 2.453,162.409 c 0,0 -0.002,0.016 -0.002,0.019 -0.006,0 -0.033,-0.008 -0.042,-0.008 0.002,-0.003 0.044,-0.011 0.044,-0.011"
   id="path3049"
   inkscape:connector-curvature="0"
   style="fill:#00873d" />
		<path
   d="m 81.591,142.403 c -0.435,0.637 -1.299,1.596 -1.738,2.226 -7.111,9.456 -15.714,19.846 -25.506,25.083 -3.728,2.433 -8.061,3.951 -13.703,4.809 -10.682,0.488 -21.155,-0.516 -24.82,-11.166 -0.498,-1.984 -1.053,-4.854 -1.053,-7.754 0,-2.797 0.516,-5.625 2.1,-7.72 l 0.062,-0.084 0.042,-0.097 c 1.348,-3.148 3.215,-6.051 5.194,-8.834 0.262,-0.373 0.529,-0.745 0.798,-1.108 0.245,-0.341 0.606,-0.658 0.612,-1.1 0.003,-0.233 -0.01,-0.243 0.146,-0.448 0.253,-0.333 0.465,-0.826 0.502,-1.246 0.035,-0.421 0.184,-0.681 0.423,-1.042 0.278,-0.422 0.583,-0.905 0.717,-1.51 0.203,-0.543 0.3,-1.05 0.3,-1.507 0,-1.072 -0.443,-1.927 -0.822,-2.659 l -0.54,-1.176 -0.148,-0.194 c -1.153,-1.121 -1.804,-2.792 -2.434,-4.404 0,0 -0.256,-0.653 -0.31,-0.789 -0.037,-0.202 -0.37,-2.013 -0.37,-2.013 -0.29,-1.445 -0.568,-2.835 -0.568,-4.243 0,-0.616 0.055,-1.231 0.183,-1.86 1.55,-8.082 3.923,-16.124 10.741,-20.278 6.193,-4.683 14.689,-4.337 22.176,-3.651 8.729,1.613 17.486,6.906 26.694,16.168 1.905,1.914 3.695,3.797 5.945,5.331 2.179,1.481 4.574,2.643 7.105,3.384 1.255,0.367 2.539,0.631 3.837,0.794 1.138,0.146 2.454,0.398 3.516,-0.169 0.203,-0.107 0.339,-0.329 0.547,-0.435 0.198,-0.101 0.449,-0.101 0.631,-0.197 0.492,-0.259 0.294,-0.553 -0.208,-0.718 -0.377,-0.125 -0.618,-0.208 -0.998,-0.313 -0.277,-0.075 -0.567,-0.228 -0.835,-0.34 -0.659,-0.275 -1.271,-0.653 -1.843,-1.079 -1.159,-0.866 -2.153,-1.927 -3.148,-2.97 -0.846,-0.886 -1.72,-1.808 -2.639,-2.567 l -0.095,-0.078 -0.112,-0.047 c -0.439,-0.192 -0.854,-0.581 -1.29,-0.993 -0.461,-0.434 -0.952,-0.858 -1.538,-1.154 -0.05,-0.039 -4.345,-3.528 -4.345,-3.528 -0.675,-0.55 -1.373,-1.071 -2.052,-1.615 -0.322,-0.257 -0.608,-0.516 -0.88,-0.809 -0.22,-0.239 -0.574,-0.318 -0.838,-0.5 C 80.808,97.649 80.646,97.527 80.466,97.328 80.349,97.197 80.24,97.114 80.095,97.026 79.974,96.953 79.763,96.9 79.671,96.826 79.608,96.78 79.613,96.689 79.554,96.649 79.488,96.603 79.4,96.626 79.346,96.592 79.094,96.432 78.893,96.186 78.644,96.012 78.332,95.792 78.022,95.574 77.711,95.356 77.088,94.919 76.464,94.484 75.84,94.051 74.532,93.148 73.219,92.253 71.894,91.374 68.782,89.309 65.614,87.321 62.348,85.507 61.556,85.166 60.883,84.746 60.166,84.299 59.217,83.705 58.22,83.121 57.102,82.774 56.59,82.152 55.959,82.056 55.556,82.017 55.214,81.984 55.193,81.968 55.123,81.874 l -0.327,-0.432 -0.532,0.109 c -0.481,0.097 -0.822,-0.07 -1.432,-0.399 -0.35,-0.188 -0.757,-0.385 -1.221,-0.523 -0.486,-0.453 -1.033,-0.474 -1.405,-0.378 -2.344,-0.925 -4.809,-1.575 -7.2,-2.189 l -2.989,-0.787 -0.076,0.01 -0.921,0.108 c -0.407,0.078 -0.518,0.087 -0.675,0.003 L 38.154,77.291 H 37.33 C 33.453,77.29 29.057,77.284 25.462,79.12 l -1.494,0.762 c 0,0 0.066,0.036 0.073,0.038 -1.018,0.458 -1.875,1.005 -2.629,1.702 -0.92,0.326 -1.683,0.944 -2.338,1.537 l -0.928,0.789 0.255,-0.129 c -0.557,0.174 -0.929,0.637 -1.228,1.008 l -0.296,0.339 -0.197,0.112 c 0,0 -0.18,0.338 -0.208,0.391 -0.005,0.003 -0.456,0.236 -0.456,0.236 L 15.809,86.1 c -5.997,7.799 -9.139,17.015 -9.139,26.755 0,0.587 0.011,1.179 0.034,1.772 0.383,4.231 1.832,8.159 4.566,12.407 0.697,0.976 1.419,1.941 2.241,2.817 0.388,0.411 0.799,0.806 1.242,1.16 0.208,0.166 0.424,0.337 0.654,0.473 0.227,0.135 0.48,0.134 0.716,0.248 0.13,0.287 -0.402,0.503 -0.509,0.716 -0.167,0.337 -0.28,0.853 -0.627,1.099 -2.477,1.768 -4.844,4.248 -6.512,6.844 l -0.062,0.098 -0.034,0.11 c -0.492,1.566 -1.389,2.955 -2.335,4.425 -1.082,1.676 -2.202,3.415 -2.706,5.474 0.02,-0.072 -0.771,1.896 -0.771,1.896 -0.533,1.218 -1.065,2.49 -1.276,3.936 -0.009,0.066 -0.127,0.178 -0.164,0.242 -0.057,0.095 -0.109,0.195 -0.153,0.299 -0.075,0.174 -0.091,0.408 -0.185,0.567 -0.048,0.085 -0.053,0.032 -0.113,0.075 -0.111,0.078 -0.11,0.211 -0.124,0.361 -0.034,0.376 -0.022,0.758 -0.022,1.137 0,0.469 0.013,0.935 0.013,1.406 0,0.197 -0.052,0.537 0.105,0.668 0.121,0.105 0.126,0.161 0.084,0.291 -0.058,0.173 -0.1,0.354 -0.1,0.535 0,0.215 0,0.447 0.074,0.65 0.13,0.345 0.446,0.14 0.723,0.076 0.008,0.015 0.021,0.043 0.021,0.043 -0.13,0.469 -0.258,0.602 -0.262,0.604 -0.104,0.078 -0.224,0.107 -0.301,0.225 -0.073,0.115 -0.091,0.264 -0.114,0.394 -0.047,0.254 -0.097,0.491 -0.097,0.753 0,0.207 0.013,0.406 0.034,0.607 0.018,0.18 -0.001,0.365 0.012,0.545 0.014,0.156 0.083,0.282 0.097,0.438 0.032,0.377 0.054,0.753 0.082,1.129 0.021,0.293 0.041,0.588 0.063,0.885 0.003,0.048 0.06,0.314 0.025,0.355 0.141,-0.161 0.282,-0.32 0.423,-0.48 0.074,-0.082 0.16,-0.271 0.286,-0.277 0.292,-0.006 0.312,0.635 0.356,0.828 l 0.022,-0.019 c -0.038,0.241 -0.08,0.481 -0.08,0.718 0,0.488 0.08,0.932 0.217,1.166 l 0.447,0.755 0.749,-0.46 c 0.073,-0.045 0.085,-0.113 0.15,-0.156 0,0 0.156,0.004 0.311,0.008 0.008,0.205 0.02,0.494 0.02,0.494 l 0.087,1.391 0.053,0.066 0.395,1.252 c 0.137,0.529 0.301,1.055 0.548,1.533 -0.006,0.071 -0.015,0.146 -0.015,0.217 0,1.102 0.524,2.113 1.484,2.83 0,0 0.416,0.309 0.815,0.609 0.157,0.324 0.58,1.21 0.58,1.21 0,0 0.183,-0.399 0.369,-0.794 0.06,0.133 0.117,0.266 0.174,0.406 l 0.526,1.152 0.358,0.037 c 0.067,0.017 0.108,0.063 0.273,0.359 l 0.875,1.117 0.132,-0.066 c 0.337,0.091 0.796,0.493 1.238,0.877 0.646,0.563 1.376,1.201 2.283,1.441 4.323,1.592 9.101,3.133 14.21,3.475 10.271,0.83 20.593,-2.517 30.666,-9.951 8.61,-6.354 16.866,-15.551 24.534,-27.331 0.005,-0.01 1.99,-3.038 3.256,-4.968 l 1.081,-1.311 c 0.208,-0.243 0.529,-0.41 0.679,-0.697 0.187,-0.356 0.393,-0.678 0.638,-1.011 0.514,-0.702 1.053,-1.387 1.561,-2.095 0,0 3.238,-4.487 3.276,-4.538 0.487,-0.438 0.852,-0.974 1.184,-1.515 0.314,-0.512 0.61,-0.995 0.988,-1.295 l 0.095,-0.076 0.071,-0.1 c 0.688,-0.972 1.294,-2.089 1.88,-3.167 0.688,-1.268 1.374,-2.551 2.267,-3.686 0.438,-0.561 0.931,-1.088 1.498,-1.523 0.228,-0.178 0.469,-0.402 0.716,-0.545 0.341,-0.2 0.55,-0.343 0.882,-0.562 0.443,-0.288 0.557,-0.625 0.016,-0.748 -0.203,-0.045 -0.444,0.021 -0.662,-0.026 -0.228,-0.048 -0.417,-0.226 -0.642,-0.276 -1.174,-0.273 -2.375,0.313 -3.44,0.752 -1.208,0.495 -2.379,1.086 -3.494,1.767 -2.252,1.377 -4.263,3.119 -5.979,5.119 -1.774,2.067 -3.013,4.35 -4.353,6.694 -0.978,1.71 -2.396,3.657 -3.402,5.188"
   id="path3051"
   inkscape:connector-curvature="0"
   style="fill:#00873d" />
		<path
   d="m 110.966,12.262 c -0.054,-0.001 -0.107,-0.003 -0.164,0.014 -0.372,0.114 -0.535,0.473 -0.793,0.722 -0.313,0.299 -0.672,0.545 -0.977,0.858 -0.581,0.599 -1.053,1.275 -1.567,1.929 0,0 -0.916,1.166 -1.068,1.358 -1.673,1.032 -3.87,1.016 -5.063,0.382 l -0.077,-0.039 -0.083,-0.026 c -0.189,-0.056 -0.371,-0.253 -0.583,-0.482 -0.286,-0.31 -0.576,-0.48 -0.906,-0.697 -0.247,-0.159 -0.351,-0.284 -0.378,-0.592 -0.012,-0.146 0.261,-1.568 0.359,-1.545 -0.208,-0.048 -0.273,-0.127 -0.508,-0.611 l -0.496,-0.922 -0.343,-0.039 c -0.655,-0.162 -1.396,-0.554 -2.113,-0.933 0,0 -0.413,-0.211 -0.681,-0.352 -0.452,-0.858 -1.45,-0.947 -1.99,-0.966 -0.295,-0.01 -0.596,-0.064 -0.89,-0.098 -0.287,-0.031 -1.013,0.012 -1.214,-0.197 C 91.263,9.853 91.439,9.773 91.346,9.608 91.117,9.216 90.671,9.68 90.389,9.755 90.072,9.841 89.704,9.816 89.378,9.869 88.84,9.957 88.047,10.14 88.035,10.822 87.157,11.169 86.92,10.316 86.111,10.081 85.715,9.968 85.31,9.882 84.897,9.86 84.536,9.84 84.197,9.965 83.847,9.938 83.464,9.907 83.145,9.674 82.774,9.604 82.357,9.528 82.022,9.753 81.639,9.877 c -0.971,0.317 -1.866,0.807 -2.756,1.3 -1.062,0.587 -2.063,1.143 -3.088,1.292 l -0.162,0.024 -0.143,0.082 c -3.095,1.792 -5.861,3.481 -8.4,6.042 -6.246,6.175 -10.021,13.693 -11.536,22.977 -0.45,2.164 -0.677,4.301 -0.677,6.415 0,6.433 2.777,16.509 4.821,19.648 3.711,5.702 13.394,17.466 23.065,24.009 2.432,1.698 4.769,3.759 7.241,5.941 3.228,2.85 6.568,5.797 10.28,7.937 l 0.13,0.074 0.244,0.044 c 0.452,0.08 1.82,0.324 2.401,-0.939 0.954,-1.883 -0.804,-3.322 -1.981,-4.471 -1.558,-1.519 -3.015,-3.148 -4.447,-4.784 -0.776,-0.887 -1.548,-1.775 -2.322,-2.666 -1.9,-2.193 -3.865,-4.459 -5.967,-6.619 -0.553,-0.718 -1.198,-1.251 -1.792,-1.943 -0.316,-0.369 -0.774,-0.611 -1.152,-0.909 -0.753,-0.586 -1.592,-1.146 -2.098,-1.83 -0.627,-0.837 -1.286,-1.017 -1.997,-1.717 -0.947,-0.931 -1.401,-2.218 -2.319,-3.182 -1.068,-1.12 -2.082,-2.29 -3.055,-3.491 -1.736,-2.144 -3.354,-4.389 -4.828,-6.721 -2.172,-3.44 -2.77,-12.247 -2.77,-16.776 0,-3.883 0.755,-7.728 2.962,-11.307 4.104,-6.543 10.704,-10.302 19.607,-11.172 0.662,0.014 1.28,-0.205 1.829,-0.396 0.876,-0.308 1.191,-0.366 1.448,-0.138 l 0.271,0.241 0.363,-0.026 c 1.251,-0.09 2.357,0.31 3.527,0.73 0.949,0.343 1.933,0.683 3.042,0.799 4.198,1.553 8.237,-1.684 11.487,-4.3 0,0 0.838,-0.669 0.96,-0.766 0.265,-0.125 2.205,-1.021 2.205,-1.021 1.132,-0.569 2.202,-1.107 3.352,-1.395 l 0.093,-0.023 0.083,-0.042 c 5.732,-2.86 14.714,-5.326 21.154,-2.855 l 0.044,0.02 0.048,0.012 c 6.537,1.684 10.854,7.076 13.578,16.967 0.404,1.614 0.508,3.228 0.582,4.826 0.472,10.333 -12.549,27.334 -15.237,30.115 0,0 -3.755,3.969 -3.835,4.056 -3.736,3.239 -7.42,6.541 -10.882,10.073 -3.423,3.498 -6.648,7.23 -9.314,11.344 -1.262,1.948 -2.395,3.981 -3.333,6.104 -0.456,1.028 -0.866,2.079 -1.219,3.145 -0.177,0.532 -0.294,1.097 -0.489,1.62 -0.15,0.399 -0.481,0.834 -0.386,1.288 0.039,0.19 0.171,0.23 0.276,0.364 0.154,0.19 0.148,0.223 0.187,0.488 0.192,1.297 1.402,-0.394 1.676,-0.786 0.912,-1.297 1.899,-2.411 3.049,-3.525 1.037,-1.004 2.074,-2.025 2.915,-3.208 0.334,-0.468 0.72,-0.938 0.942,-1.476 0.212,-0.516 0.34,-0.938 0.664,-1.423 0.991,-1.492 2.34,-2.597 3.638,-3.831 1.693,-1.607 3.438,-3.276 4.827,-5.124 6.584,-5.708 12.463,-12.51 18.145,-19.091 l 5.503,-6.313 1.757,-2.479 c 1.498,-2.054 13.172,-16.255 14.037,-27.239 0.111,-1.445 0.512,-2.747 0.512,-4.045 0,-3.162 -0.892,-6.058 -1.765,-8.887 l -0.96,-3.301 -0.085,-0.139 c -0.678,-0.992 -1.133,-2.093 -1.62,-3.256 -0.602,-1.454 -1.244,-2.945 -2.332,-4.227 -0.667,-1.771 -2.255,-2.895 -3.68,-3.878 -0.898,-0.619 -1.746,-1.204 -2.29,-1.879 l -0.101,-0.122 -0.131,-0.081 c -4.099,-2.421 -8.836,-3.706 -14.909,-4.042 -1.431,-0.039 -2.87,0.005 -4.3,0.129 -4.736,0.411 -9.385,1.716 -13.654,3.803 -2.149,1.052 -4.203,2.3 -6.128,3.721 -0.973,0.718 -1.911,1.48 -2.814,2.283 -0.456,0.405 -0.9,0.818 -1.336,1.245 -0.202,0.196 -0.426,0.368 -0.628,0.555 -0.154,0.144 -0.281,0.387 -0.469,0.484 -0.076,0.04 -0.154,0.032 -0.231,0.029"
   id="path3053"
   inkscape:connector-curvature="0"
   style="fill:#00873d" />
		<path
   d="m 106.357,37.515 c -0.026,0.388 -0.033,0.779 -0.038,1.17 0,0.002 -0.004,0.23 -0.004,0.23 l 0.073,-0.104 -0.139,0.2 -0.174,0.426 c -0.01,2.959 -0.5,6.201 -1.029,9.138 l -0.015,0.085 0.004,0.087 c 0.015,0.32 0.021,0.643 0.021,0.964 0,2.055 -0.292,4.1 -0.577,6.086 -0.292,2.03 -0.588,4.114 -0.588,6.249 0,0.58 0.024,1.167 0.075,1.754 -0.226,1.675 -0.33,3.325 -0.33,4.953 0,4.422 0.682,6.307 1.369,10.458 l 0.783,4.165 c -0.004,-0.033 0.117,1.808 0.117,1.808 0.047,1.074 0.169,2.107 0.34,3.166 0.094,0.583 0.056,1.574 0.649,1.95 0.371,0.235 0.432,-0.122 0.557,-0.376 0.296,-0.598 1.09,-0.84 1.45,-1.422 0.353,-0.572 0.439,-1.236 0.51,-1.88 0.055,-0.498 0.105,-0.968 0.303,-1.291 l 0.03,-0.048 0.021,-0.052 c 0.693,-1.595 0.91,-3.32 1.118,-4.99 0.176,-1.403 0.339,-2.728 0.765,-3.961 0.986,-2.533 1.288,-5.263 1.288,-7.982 0,-2.277 -0.212,-4.546 -0.411,-6.687 -0.045,-0.474 -0.096,-0.932 -0.299,-1.376 -0.364,-0.797 -0.505,-1.642 -0.671,-2.489 -0.322,-1.416 -0.627,-2.764 -0.627,-4.268 0,-0.265 0.008,-0.537 0.029,-0.812 l 0.029,-0.401 -0.33,-0.272 c -0.064,-0.409 -0.1,-0.836 -0.1,-1.302 0,-0.227 0.002,-0.461 0.006,-0.698 0.003,-0.236 0.008,-0.476 0.008,-0.714 0,-0.987 -0.066,-1.974 -0.479,-2.842 l -0.071,-0.151 -0.129,-0.113 c -0.174,-0.153 -0.244,-0.377 -0.244,-0.663 0,-0.396 0.134,-0.912 0.31,-1.524 0.085,-0.297 0.21,-0.623 0.2,-0.934 -0.667,-0.023 -0.178,-0.977 -0.278,-1.344 -0.081,-0.297 -0.286,-0.438 -0.505,-0.668 -0.359,-0.374 -0.144,-0.684 0.042,-1.076 -0.851,-1.014 -1.279,-2.147 -1.514,-3.389 -0.205,-1.079 -0.011,-2.503 -0.878,-3.353 -0.587,-0.576 -0.292,0.474 -0.23,0.753 0.107,0.484 -0.077,1.123 -0.154,1.606 -0.104,0.648 -0.244,1.273 -0.283,1.934"
   id="path3055"
   inkscape:connector-curvature="0"
   style="fill:#00873d" />
		<path
   d="m 187.468,49.024 c -10.998,2.769 -20.987,7.375 -27.29,14.789 -5.603,6.586 -11.149,13.216 -16.703,19.844 -2.813,3.361 -5.696,6.581 -8.485,9.931 -1.533,1.843 -3.098,3.662 -4.648,5.492 -2.893,3.409 -5.97,6.634 -9.096,9.828 -0.439,0.453 -2.866,1.772 -2.493,2.513 0.536,1.054 3.816,-1.006 4.358,-1.269 4.932,-2.403 9.805,-4.839 14.094,-8.288 1.721,-1.385 3.512,-2.69 5.128,-4.201 1.664,-1.555 3.031,-3.395 4.532,-5.101 3.516,-3.998 7.164,-7.885 10.826,-11.751 0.002,-0.002 4.069,-4.121 4.069,-4.121 0,0 2.288,-2.276 2.398,-2.386 2.944,-2.171 6.01,-4.22 9.37,-6.26 6.995,-3.329 13.112,-5.075 19.175,-5.456 1.703,0.207 3.484,0.233 5.207,0.256 2.067,0.025 4.21,0.052 6.179,0.402 l 0.11,0.02 0.111,-0.009 c 3.353,-0.285 6.123,1.081 9.057,2.528 l 1.899,0.916 c 6.708,3.789 10.525,10.508 10.525,17.991 0,1.886 -0.241,3.82 -0.741,5.767 -0.979,3.82 -2.732,7.465 -4.643,10.896 -1.498,2.693 -6.107,6.495 -3.199,9.278 1.711,1.642 7.638,4.172 9.121,13.524 1.73,10.91 -0.75,19.121 -4.758,25.392 -2.829,4.006 -6.709,6.947 -10.466,9.79 l -3.163,2.437 c -5.642,4.584 -15.492,3.701 -20.74,1.262 -5.252,-2.443 -22.438,-11.85 -32.487,-22.263 l -2.443,-2.352 c -2.139,-2.06 -4.031,-4.406 -6.132,-6.51 -2.118,-2.118 -4.322,-4.156 -6.687,-5.995 -4.491,-3.491 -9.67,-6.293 -15.397,-6.93 -1.3,-0.145 -2.615,-0.178 -3.921,-0.104 -0.693,0.04 -1.389,0.117 -2.078,0.212 -0.679,0.097 -1.487,0.068 -2.119,0.341 -0.764,0.332 -0.261,0.67 0.327,0.747 0.58,0.079 0.865,0.245 1.309,0.646 1.111,1.006 2.512,1.662 3.756,2.487 1.424,0.948 2.778,1.997 4.082,3.102 2.65,2.257 5.084,4.757 7.455,7.3 0.262,0.278 0.518,0.558 0.779,0.838 3.682,4.335 8.337,9 14.203,14.229 1.546,1.244 22.303,17.574 27.317,20.746 l 7.26,4.668 c 0.068,0.037 3.438,1.965 3.438,1.965 3.038,1.789 6.179,3.641 9.72,4.449 -0.021,-0.006 2.395,0.648 2.395,0.648 2.934,0.816 5.975,1.663 9.325,1.689 6.181,0.726 12.804,-1.604 18.558,-6.563 9.207,-5.947 16.038,-13.902 18.748,-21.845 2.141,-4.254 2.996,-8.982 2.996,-13.634 0,-5.772 -1.307,-11.419 -3.076,-15.862 -1.195,-3.657 -3.799,-6.655 -6.317,-9.556 -1.384,-1.59 -2.853,-3.234 -2.823,-5.515 0.031,-2.446 0.881,-4.977 2.394,-6.897 0.006,-0.01 0.331,-0.448 0.331,-0.448 0.465,-0.636 0.99,-1.357 1.555,-1.515 l 0.337,-0.095 c 0,0 0.187,-0.321 0.195,-0.338 l 0.274,-0.202 c 0.253,-0.162 0.793,-0.538 0.9,-1.185 0.104,0.002 0.225,0.006 0.225,0.006 l 0.354,-0.273 0.051,-0.047 c 0.384,-0.341 0.507,-0.67 0.507,-0.947 0,-0.156 -0.04,-0.297 -0.091,-0.415 0,0 -0.092,-0.207 -0.162,-0.366 0.205,-0.355 0.374,-0.734 0.428,-1.186 0,0 0.127,-1.003 0.146,-1.155 0.14,-0.232 0.292,-0.463 0.409,-0.705 -1.331,0.632 -0.784,-0.989 -0.459,-1.692 0.261,-0.561 0.573,-1.119 1.035,-1.54 0.427,-0.395 1.13,-0.419 1.433,-0.92 0.085,-0.143 0.101,-0.279 0.114,-0.412 0.051,0 0.154,0 0.159,0 0.124,0 0.088,-1.004 0.065,-1.102 -0.075,-0.402 -0.303,-0.607 -0.216,-1.068 0.157,-0.814 0.917,-1.511 1.146,-2.343 -0.22,0.097 -0.481,0.554 -0.735,0.244 -0.134,-0.167 0.127,-0.752 0.174,-0.921 -0.565,0.662 -0.386,-0.312 -0.278,-0.587 0.218,-0.558 0.465,-1.152 0.879,-1.596 -0.02,-0.425 -0.029,-0.854 -0.044,-1.279 0.041,-0.125 0.08,-0.259 0.08,-0.415 0,-0.154 -0.033,-0.323 -0.111,-0.503 l -0.088,-0.19 -0.242,-0.188 c -0.09,-0.072 -0.227,-0.172 -0.398,-0.255 -0.072,-0.538 -0.139,-1.035 -0.179,-1.325 0.341,-0.525 0.526,-1.074 0.526,-1.624 0,-0.811 -0.268,-1.605 -0.486,-2.271 -0.177,-0.589 -0.353,-1.185 -0.533,-1.766 -0.436,0.249 -0.707,0.919 -0.934,-0.047 -0.289,-1.214 0.354,-2.924 -1.156,-3.608 -0.168,-1.134 -0.869,-2.207 -1.686,-2.946 -0.228,-1.266 -1.021,-2.111 -1.756,-2.844 -0.646,-0.644 -1.203,-1.199 -1.328,-1.973 l -0.09,-0.549 -0.537,-0.144 c -0.721,-0.193 -1.119,-0.717 -1.62,-1.378 -0.413,-0.548 -0.883,-1.168 -1.597,-1.639 0,0 -0.189,-0.122 -0.19,-0.122 -0.277,-0.541 -0.665,-0.819 -1.151,-0.852 -3.771,-3.818 -9.483,-6.151 -13.696,-7.856 l -0.059,-0.025 -0.067,-0.015 c -9.803,-2.323 -21.081,-2.123 -31.75,0.567"
   id="path3057"
   inkscape:connector-curvature="0"
   style="fill:#00873d" />
		<path
   d="m 245.599,85.948 0.003,0.015 -0.08,0.158 c 0.051,-0.057 0.039,-0.116 0.077,-0.173"
   id="path3059"
   inkscape:connector-curvature="0"
   style="fill:#00873d" />
		<path
   d="m 60.815,119.202 c -1.635,0.135 -3.038,0.956 -4.392,1.751 -1.552,0.908 -3.019,1.768 -4.628,1.42 l -0.311,-0.067 -0.266,0.191 c -0.443,0.314 -1.021,0.415 -1.631,0.522 -0.601,0.107 -1.266,0.272 -1.892,0.62 -0.856,-0.222 -1.628,-0.075 -2.308,0.111 l -1.144,0.238 c 0,0 -2.205,0.356 -2.208,0.356 -1.95,0.312 -3.898,0.694 -5.804,1.264 -1.613,0.479 -3.525,0.755 -5.026,1.548 -0.186,1.26 2.207,0.567 2.837,0.577 1.576,0.022 3.036,0.685 4.661,0.609 1.698,-0.077 3.382,-0.358 5.074,-0.517 1.857,-0.173 3.61,-0.334 5.259,-0.107 l 0.113,0.015 0.115,-0.021 c 2.747,-0.509 5.294,-0.317 7.992,-0.113 2.333,0.174 4.747,0.352 7.324,0.048 4.446,0.542 8.406,-0.912 12.234,-2.327 1.279,-0.471 2.558,-0.945 3.858,-1.343 0.47,-0.146 1.025,-0.155 1.425,-0.498 0.156,-0.131 0.219,-0.29 0.403,-0.39 0.146,-0.079 0.335,-0.062 0.486,-0.133 0.175,-0.084 0.475,-0.458 0.621,-0.603 0.255,-0.253 0.357,-0.493 0.272,-0.872 -0.087,-0.387 -0.322,-0.673 -0.662,-0.792 -1.639,-0.581 -3.502,-0.588 -5.204,-0.872 -1.869,-0.31 -3.749,-0.623 -5.645,-0.619 -1.772,0.006 -3.045,0.563 -4.764,0.693 -2.259,0.171 -4.509,-0.927 -6.789,-0.689"
   id="path3061"
   inkscape:connector-curvature="0"
   style="fill:#00873d" />
		<path
   d="m 202.707,106.354 -1.747,0.086 -0.058,-0.002 -8.414,0.252 c -4.02,0.148 -7.823,0.285 -11.776,0.267 -3.646,-1.134 -7.744,-0.604 -11.713,-0.077 -1.263,0.166 -2.522,0.334 -3.792,0.45 -0.638,0.057 -1.276,0.101 -1.915,0.122 -0.52,0.017 -0.969,0.217 -1.475,0.283 -0.307,0.041 -0.553,-0.186 -0.852,-0.195 -0.267,-0.008 -0.605,0.168 -0.872,0.228 -0.678,0.146 -1.365,0.244 -2.048,0.34 -1.755,0.247 -3.566,0.519 -5.153,1.564 -1.185,0.248 -2.323,0.63 -3.418,1.007 -1.723,0.592 -3.347,1.15 -5.141,1.188 l -0.068,0.003 -0.071,0.015 c -0.742,0.188 -1.165,0.807 -1.795,1.217 -0.561,0.364 -1.904,0.467 -1.942,0.845 -0.035,0.377 1.847,0.522 2.526,0.792 1.052,0.42 2.092,0.89 3.21,0.966 l 0.156,0.01 0.146,-0.066 c 1.665,-0.745 2.926,-0.208 4.391,0.417 0.912,0.387 1.84,0.745 2.81,0.833 0.461,0.041 1.106,0.122 1.534,-0.123 0.438,-0.25 0.585,-0.516 1.146,-0.327 2.503,0.833 5.472,0.412 8.039,0.291 3.053,-0.142 6.1,-0.436 9.139,-0.786 2.546,-0.293 5.087,-0.629 7.624,-0.971 l 0.146,-0.018 0.129,-0.085 c 0.586,-0.383 1.308,-0.536 2.074,-0.697 0.891,-0.188 2.01,-0.328 2.646,-1.239 0.12,-0.176 -0.004,-0.319 0.253,-0.467 0.365,-0.216 0.772,-0.021 1.141,0.008 0.462,0.034 0.946,-0.077 1.411,-0.088 0.915,-0.024 1.827,0.055 2.739,0.146 l 0.059,0.005 0.063,-0.009 c 0.979,-0.1 1.787,-0.621 2.5,-1.085 0.693,-0.446 1.294,-0.825 1.99,-0.858 1.719,0.644 3.391,0.333 5.02,0.013 1.105,-0.217 2.199,-0.177 3.301,-0.317 0.554,-0.073 1.545,-0.361 2.051,-0.776 0.303,-0.252 0.328,-0.566 0.744,-0.748 0.771,-0.338 1.854,0.565 2.417,-0.639 0.54,-1.154 -1.487,-1.148 -2.113,-1.344 -1.679,-0.514 -3.313,-0.615 -5.042,-0.431"
   id="path3063"
   inkscape:connector-curvature="0"
   style="fill:#00873d" />
		<path
   d="m 134.977,156.949 c -0.89,-0.802 -4.052,-2.995 -5.032,-3.712 -2.743,-2.002 -4.044,-3.2 -6.06,-5.344 -1.2,-1.278 -2.105,-2.213 -3.124,-3.641 -0.459,-0.645 -1.046,-1.364 -1.287,-2.104 -0.105,-0.323 -0.051,-0.461 -0.281,-0.771 -0.14,-0.192 -0.345,-0.316 -0.452,-0.539 -0.125,-0.257 0.068,-0.438 -0.082,-0.752 -0.152,-0.317 -0.57,-0.421 -0.755,-0.726 -0.096,-0.152 -0.128,-0.404 -0.181,-0.578 -0.139,-0.435 -0.273,-0.869 -0.413,-1.305 -0.522,-1.438 -0.697,-2.396 -0.754,-4.281 -0.011,-0.363 0.356,-3.119 1.129,-2.489 0.161,0.13 0.142,0.633 0.223,0.824 0.295,0.673 1.111,1.311 1.59,1.865 1.133,1.309 2.414,2.032 3.874,2.915 -0.059,-0.036 -0.117,-0.07 -0.174,-0.104 1.217,0.7 2.367,1.787 3.498,2.624 1.446,1.058 2.445,1.924 3.486,3.28 1.254,1.631 3.295,2.005 4.825,3.298 1.572,1.33 3.113,2.702 4.713,4 9.053,7.356 20.046,18.884 25.886,27.845 5.071,7.781 8.066,15.664 9.808,22.861 2.305,9.517 1.953,18.311 -1.025,26.057 -4.198,15.252 -17.684,27.357 -31.351,28.121 l -0.056,0.006 -0.055,-0.006 c -7.52,-0.566 -14.729,-1.461 -20.341,-6.068 l -0.125,-0.1 -0.081,-0.141 c -0.757,-1.518 -2.244,-2.887 -3.481,-4.01 -1.155,-1.043 -3.074,-2.357 -4.665,-2.461 -1.03,-0.066 -2.109,0.125 -3.055,0.541 -1.072,0.473 -1.013,0.727 -1.362,1.762 -0.195,0.578 -0.5,0.74 -1.074,0.965 -0.508,0.197 -1.053,0.213 -1.564,0.361 -0.832,0.244 -1.566,0.822 -2.29,1.275 -0.924,0.576 -1.804,1.229 -2.729,1.805 -1.784,1.111 -3.641,2.121 -5.587,2.922 -3.843,1.578 -7.997,2.213 -12.105,1.451 -0.087,-0.012 -0.174,-0.029 -0.259,-0.047 -5.619,-0.682 -9.601,-2.088 -12.865,-4.533 -5.457,-3.537 -10.115,-10.297 -12.776,-18.533 l -0.057,-0.182 0.021,-0.188 c 0.008,-0.07 0.015,-0.145 0.016,-0.213 0.005,-0.527 -0.211,-1.002 -0.458,-1.537 0,0 -0.385,-0.934 -0.401,-0.992 -0.672,-2.645 -0.98,-5.521 -0.945,-8.453 0.069,-5.695 1.43,-11.605 3.932,-16.456 l 1.881,-3.752 c 1.17,-2.376 2.379,-4.831 3.721,-7.083 3.423,-5.778 7.046,-11.293 10.287,-17.143 l 1.174,-2.117 0.043,-0.055 c 0.535,-0.678 0.94,-1.438 1.372,-2.238 0.286,-0.536 0.576,-1.07 0.901,-1.586 0.286,-0.449 0.685,-0.656 0.969,-1.025 0.171,-0.221 0.125,-0.395 0.236,-0.592 0.104,-0.186 0.262,-0.326 0.362,-0.498 0.159,-0.266 0.122,-0.441 0.24,-0.708 0.208,-0.478 0.447,-0.786 0.607,-1.271 0.278,-0.838 0.716,-1.534 1.339,-2.154 0.514,-0.512 0.632,-0.884 0.923,-1.521 0.74,-1.615 2.159,-3.057 3.194,-4.499 2.118,-2.954 4.308,-5.862 6.612,-8.675 1.263,-1.924 2.715,-3.704 4.252,-5.589 0.94,-1.167 1.833,-2.598 2.899,-3.646 -0.05,0.048 -0.103,0.1 -0.154,0.152 1.27,-1.302 2.396,-2.394 3.208,-4.046 0.346,-0.701 1.015,-1.578 1.138,-2.352 0.033,-0.218 -0.123,-0.731 0.009,-0.909 0.627,-0.857 1.748,1.882 1.833,2.26 0.448,1.96 0.527,2.994 0.376,4.617 -0.024,0.487 -0.047,0.97 -0.072,1.456 -0.009,0.193 0.025,0.461 -0.031,0.646 -0.111,0.363 -0.514,0.582 -0.586,0.95 -0.068,0.364 0.178,0.5 0.12,0.796 -0.049,0.259 -0.229,0.442 -0.321,0.679 -0.151,0.382 -0.06,0.509 -0.082,0.871 -0.047,0.826 -0.46,1.727 -0.759,2.515 -0.664,1.746 -1.345,2.955 -2.237,4.593 -1.5,2.754 -2.52,4.339 -4.808,7.142 -5.399,6.615 -10.333,12.994 -15.128,20.059 -4.972,7.322 -9.374,15.033 -13.221,23.002 -3.389,6.458 -2.02,15.48 0.992,20.684 4.455,7.469 9.236,11.762 14.173,12.748 l 1.748,0.273 c 5.117,0.824 9.656,0.922 13.89,-2.387 l 0.114,-0.09 0.137,-0.045 c 1.376,-0.465 2.67,-1.104 4.043,-1.781 2.152,-1.064 4.48,-2.186 6.745,-2.932 2.523,-0.832 2.244,-0.215 4.188,1.363 2.692,2.193 7.379,2.313 10.624,3.441 5.327,1.854 10.361,3.607 15.94,1.74 9.7,-2.695 15.296,-13.969 17.145,-22.801 0.406,-1.816 0.611,-3.771 0.615,-5.889 0.006,-2.969 -0.391,-6.254 -1.18,-9.89 -3.336,-10.729 -6.969,-19.3 -13.857,-26.319 l -0.04,-0.04 -0.034,-0.052 c -2.352,-3.197 -5.137,-5.688 -8.085,-8.322 -0.341,-0.304 -2.807,-2.18 -3.154,-2.492"
   id="path3065"
   inkscape:connector-curvature="0"
   style="fill:#00873d" />
		<path
   d="m 111.501,156.667 c -0.244,1.658 -0.144,3.339 -1.355,4.861 0,0.002 -0.122,0.15 -0.122,0.15 l -0.215,1.762 c -0.628,5.154 -1.282,10.49 -1.223,15.711 -0.001,0.229 0.002,0.459 0.007,0.686 0.078,2.881 0.718,5.574 1.338,8.186 0.393,1.652 0.801,3.357 1.052,5.076 l 0.019,0.133 0.079,0.117 c 0.913,1.4 1.191,3.158 1.24,4.965 0.021,0.765 -0.039,1.526 -0.032,2.287 0.005,0.582 -0.229,1.273 -0.106,1.834 0.093,0.412 0.474,0.768 0.645,1.165 0.353,0.821 -0.127,1.646 -0.092,2.474 0.019,0.449 0.42,0.622 0.513,0.941 0.1,0.338 -0.2,0.785 -0.26,1.129 -0.088,0.493 -0.082,1.006 -0.068,1.504 0.045,1.678 0.775,3.227 1.788,4.705 0.513,0.749 1.157,1.465 1.616,2.232 0.468,0.774 0.251,1.656 0.669,2.43 0.442,0.813 0.684,-0.412 0.75,-0.691 0.198,-0.857 -0.052,-1.625 -0.11,-2.477 -0.076,-1.1 0.352,-2.184 0.321,-3.301 -0.02,-0.766 -0.109,-1.524 -0.197,-2.269 -0.085,-0.74 -0.173,-1.495 -0.195,-2.251 -0.01,-0.33 -0.001,-0.658 0.022,-0.992 0.353,-0.957 0.692,-2.02 0.664,-3.115 -0.01,-0.346 -0.088,-0.695 -0.183,-1.049 0.374,-0.729 0.488,-1.453 0.469,-2.16 -0.007,-0.287 -0.029,-0.572 -0.052,-0.854 -0.021,-0.264 -0.042,-0.525 -0.049,-0.783 -0.014,-0.555 0.033,-1.088 0.272,-1.588 l 0.056,-0.115 0.265,-6.771 c 0.172,-3.566 0.351,-7.258 0.25,-10.954 0,-0.032 -0.003,-0.136 -0.003,-0.136 -0.329,-2.284 -0.552,-4.562 -0.817,-6.832 -0.203,-1.781 -1.535,-3.318 -1.882,-5.051 -0.092,-0.459 -0.583,-0.682 -0.742,-1.1 -0.18,-0.479 0.273,-0.866 0.344,-1.318 0.08,-0.512 -0.125,-1.119 -0.225,-1.625 -0.195,-0.978 -0.482,-1.939 -0.771,-2.9 -0.283,-0.941 -0.352,-1.973 -0.762,-2.881 -0.425,-0.936 -1.001,-3.24 -2.268,-3.77 -0.449,0.508 -0.352,1.232 -0.492,1.813 -0.068,0.273 -0.117,0.548 -0.158,0.822"
   id="path3067"
   inkscape:connector-curvature="0"
   style="fill:#00873d" />
	</g>
	
	
	
	
	
	
	
	
	
	
	
	
	
	
</g>
</svg>