<?xml version="1.0" encoding="utf-8"?>
<!-- Generator: Adobe Illustrator 20.1.0, SVG Export Plug-In . SVG Version: 6.00 Build 0)  -->
<!DOCTYPE svg PUBLIC "-//W3C//DTD SVG 1.1//EN" "http://www.w3.org/Graphics/SVG/1.1/DTD/svg11.dtd">
<svg version="1.1" id="Lager_1" xmlns="http://www.w3.org/2000/svg" xmlns:xlink="http://www.w3.org/1999/xlink" x="0px" y="0px"
	 viewBox="0 0 181 167.6" enable-background="new 0 0 181 167.6" xml:space="preserve" preserveAspectRatio="none">
<rect fill-rule="evenodd" clip-rule="evenodd" fill="#005ea1" width="181" height="167.6"/>
<g>
	<g>
		<path fill="#FFFFFF" d="M77.9,37.2h6.3c0,4.2,0,8.4,0,12.6l7.9-12.6h7.4L89.3,52.8l11.1,16h-7.8l-8.4-12.4c0,4.1,0,8.3,0,12.4
			h-6.3V37.2z"/>
		<path fill="#FFFFFF" d="M87.3,112.9h-9.4V81.4h9.4C108.3,81.4,108.3,112.9,87.3,112.9z M84.2,87.7v18.9h3.1
			c12.3,0,12.3-18.9,0-18.9H84.2z"/>
	</g>
</g>
<rect x="89.4" y="105.6" transform="matrix(-1.836970e-16 1 -1 -1.836970e-16 217.0907 36.1338)" fill="#FFFFFF" width="2.1" height="42"/>
<path fill="#FFFFFF" d="M168.3,152.8V14.7v-2.1h-2.1H14.7h-2.1v2.1v138.1v2.1h2.1h151.5h2.1h0L168.3,152.8L168.3,152.8z M14.7,152.8
	V14.7h151.5v138.1H14.7z"/>
</svg>
