<?xml version="1.0" encoding="UTF-8"?>
<svg xmlns="http://www.w3.org/2000/svg" width="495" height="512">
<path d="M 493.54914,244.59946 C 489.32319,191.24734 473.40301,146.27072 459.02996,118.72795 449.22667,99.86635 440.12536,85.15905 431.492,76.40154 428.42158,73.12579 422.08027,67.23811 415.70075,66.58392 409.20186,65.92019 400.71171,67.33361 383.01998,73.17832 369.72136,77.57144 359.80826,81.17185 355.98341,82.57573 354.09725,80.00673 350.33924,74.93555 347.44076,71.13936 337.67092,58.3278 325.87166,42.60818 311.7708,31.47263 301.90068,23.67492 293.00945,17.59146 280.04985,12.39616 271.71731,8.78616 263.38954,6.20284 255.85444,4.62706 242.04487,1.72858 229.9018,0.32948 226.74546,0 226.44463,2.22042 225.50871,9.02491 224.33881,17.46253 222.82988,28.2399 220.90075,44.1171 220.79569,44.99094 208.78156,42.28347 192.41731,41.82506 179.04226,44.42748 155.37689,49.04499 135.30239,58.09859 119.44908,66.01569 99.756585,75.85237 84.433305,86.67753 75.814262,93.334 59.784265,105.54871 49.427083,117.05667 43.420012,126.4302 39.704991,132.23193 37.651699,137.432 36.534327,141.18044 35.70346,143.96913 35.388304,145.92214 35.288027,146.73391 L 62.143162,167.62495 C 58.580943,167.51035 54.264257,168.29824 51.036291,169.40128 41.992261,172.49554 39.380285,174.01402 35.818062,176.07685 29.295283,179.8444 24.276658,183.9271 19.253258,188.707 11.092621,197.14457 -0.03335049,215.41887 7.5144015e-5,231.26742 7.5144015e-5,233.62631 0.22450462,235.97088 0.70201413,238.2486 3.7341995,252.6312 11.956913,263.48497 18.575195,274.07615 22.87278,280.93317 31.964561,293.06667 39.962846,303.44774 47.526595,313.23667 54.741766,321.47374 55.467579,322.37623 L 24.821019,339.28003 25.351054,341.43841 25.360605,341.43841 C 25.752162,343.27682 26.468427,346.47613 27.585799,350.66865 29.38601,357.43495 32.203316,366.71298 36.243046,376.70724 46.781681,402.89385 75.064569,452.26836 89.88169,464.27293 115.79136,485.33588 167.57248,512 235.03503,512 235.53164,512 236.0378,512 236.54873,511.97612 267.11412,511.8281 299.39376,496.16104 318.56576,475.77615 327.00813,466.8085 333.9559,456.53729 338.78829,448.51988 343.62069,440.48819 346.30907,434.76763 346.31862,434.74853 L 346.46665,434.44293 346.80568,434.32355 C 346.91073,434.28057 346.99191,434.28057 347.07308,434.28057 348.21433,434.29012 402.07261,434.05137 441.30003,398.3814 451.31342,389.2371 494.40866,353.2663 494.44686,266.6986 494.44686,259.67922 494.16513,252.31126 493.54914,244.59946" style="fill:#ffffff"/>
<path d="M 170.98174,391.96139 C 147.07761,386.23606 135.83227,374.77108 124.0521,362.84765 120.99127,359.74384 133.99385,348.55577 138.81192,351.01498 155.47223,359.53851 171.80783,369.38951 180.04009,370.40661 286.86375,383.56201 318.29342,340.75806 328.38797,316.06604 277.3231,250.28911 229.34295,268.88334 229.34295,268.88334 227.23236,286.67057 222.14688,302.75784 222.13733,321.21836 222.25671,323.09497 169.50146,329.27397 167.93045,327.07743 158.11763,317.95698 146.68128,305.44625 137.83781,295.62864 110.9206,318.99317 81.482133,331.79522 50.463116,350.41809 57.310602,379.86609 90.526162,441.63195 110.2282,453.31182 223.52211,520.50695 339.85297,505.15027 337.3556,347.1328 306.35091,407.96752 203.84394,399.76869 170.98174,391.96139" style="fill:#ec1934"/>
<path d="M 412.9116,93.010399 C 405.93998,87.767354 275.68972,147.542 232.68521,159.6946 228.66936,188.04914 226.66382,218.0033 226.0526,246.0713 263.12644,237.21829 300.63004,251.36691 338.35806,288.32611 344.62776,271.93798 344.62776,239.16652 343.88285,220.53887 343.6632,214.20233 358.01235,211.54261 359.17748,213.05631 375.87121,234.28161 363.93347,289.27636 356.01636,316.75706 358.67132,357.0827 359.12018,378.29368 351.05504,414.52711 549.89001,383.2407 453.47127,123.44688 412.9116,93.010399 M 377.59024,176.73215 C 362.76835,180.71934 341.00824,150.0919 352.84093,136.74549 368.50801,119.0729 410.2089,168.00329 377.59024,176.73215" style="fill:#ec1934"/>
<path d="M 137.25025,202.19218 C 113.85229,235.38866 177.97226,306.07916 177.97226,306.07916 L 201.99099,303.87307 C 200.07617,251.25628 212.02824,206.89087 201.65196,197.21177 192.37872,188.72166 156.78517,174.47277 137.25025,202.19218 M 169.54422,258.30912 C 148.4956,249.28894 147.22065,203.33343 165.30871,209.15907 192.85623,218.02641 199.29306,271.10157 169.54422,258.30912" style="fill:#ec1934"/>
<path d="M 128.57296,274.30088 C 118.56436,259.17818 113.54573,237.49925 111.25846,218.35589 93.81504,209.03011 67.131809,180.12647 49.726588,191.58672 10.737937,217.23852 19.218506,239.22306 21.4437,242.80915 41.790378,275.61407 51.617526,289.67192 69.361779,307.58809 87.764993,299.63279 108.29313,286.00943 128.57296,274.30088" style="fill:#ec1934"/>
<path d="M 206.74623,184.46248 C 205.82463,182.84372 216.11019,102.10163 216.61157,66.164251 164.95937,54.145358 69.968406,113.54274 60.437317,139.87264 82.321578,158.56711 103.19829,174.22465 124.66234,192.5276 140.29123,148.3723 196.62303,165.36687 206.74623,184.46248" style="fill:#ec1934"/>
<path d="M 245.6343,24.439581 C 239.83734,52.206749 239.36938,107.43552 233.69656,137.09839 271.34819,119.76479 294.39757,105.63053 333.00899,91.376861 309.26722,59.503081 286.49956,30.470516 245.6343,24.439581" style="fill:#ec1934"/>
</svg>
